<?xml version="1.0" encoding="iso-8859-1"?>
<!-- Uploaded to: SVG Repo, www.svgrepo.com, Generator: SVG Repo Mixer Tools -->
<svg height="800px" width="800px" version="1.1" id="Layer_1" xmlns="http://www.w3.org/2000/svg" xmlns:xlink="http://www.w3.org/1999/xlink" 
	 viewBox="0 0 512 512" xml:space="preserve">
<path style="fill:#9A4C00;" d="M269.531,131.454l-31.087-4.091c0.094-0.73,8.825-73.222-37.511-99.962l15.671-27.157
	C281.189,37.515,270.037,127.636,269.531,131.454z"/>
<path style="fill:#FF3C63;" d="M466.594,345.79c-16.158,42.841-42.078,77.111-60.984,98.307
	C375.771,477.563,332.794,512,305.944,512c-1.286,0-2.54-0.084-3.752-0.251c-22.816-3.073-37.709-8.163-46.196-11.904
	c-0.366,0.157-0.742,0.324-1.129,0.491c-8.643,3.679-23.213,8.476-45.056,11.413c-1.212,0.167-2.467,0.251-3.763,0.251
	c-26.85,0-69.816-34.427-99.665-67.903c-18.896-21.196-44.816-55.466-60.974-98.307c-16.054-42.579-19.095-84.27-9.051-123.892
	c13.545-53.428,39.245-90.113,76.4-109.03c51.986-26.463,104.254-6.877,104.766-6.668c5.571,2.226,22.774,5.644,34.009,7.515h8.936
	c11.235-1.871,28.449-5.299,33.999-7.515c0.512-0.209,52.791-19.795,104.776,6.668c37.145,18.917,62.855,55.602,76.4,109.03
	C485.688,261.52,482.637,303.211,466.594,345.79z"/>
<path style="fill:#FFA6B8;" d="M91.978,292.267c-14.045-86.021,43.697-123.912,46.161-125.483l16.851,26.441l0.101-0.065
	c-1.752,1.155-42.782,29.049-32.169,94.054L91.978,292.267z"/>
<path style="fill:#C20019;" d="M466.594,345.79c-16.158,42.841-42.078,77.111-60.984,98.307
	C375.771,477.563,332.794,512,305.944,512c-1.286,0-2.54-0.084-3.752-0.251c-22.816-3.073-37.709-8.163-46.196-11.904
	c-0.366,0.157-0.742,0.324-1.129,0.491V113.715h5.602c11.235-1.871,28.449-5.299,33.999-7.515
	c0.512-0.209,52.791-19.795,104.776,6.668c37.145,18.917,62.855,55.602,76.4,109.03C485.688,261.52,482.637,303.211,466.594,345.79z
	"/>
<path style="fill:#00A653;" d="M388.28,38.924l-15.625,14.11c-31.898,28.783-59.95,43.28-83.633,43.28
	c-5.288,0-10.357-0.721-15.196-2.163c-22.45-6.699-33.382-27.331-36.298-38.462l-0.658-2.487l0.178-2.571
	c0.794-11.486,7.671-33.79,28.47-44.565c24.613-12.751,59.866-5.372,104.776,21.927L388.28,38.924z"/>
<path style="fill:#008040;" d="M388.28,38.924l-15.625,14.11c-31.898,28.783-59.95,43.28-83.633,43.28
	c-5.288,0-10.357-0.721-15.196-2.163c-22.45-6.699-33.382-27.331-36.298-38.462l-0.658-2.487L388.28,38.924z"/>
</svg>