<?xml version="1.0" encoding="iso-8859-1"?>
<!-- Uploaded to: SVG Repo, www.svgrepo.com, Generator: SVG Repo Mixer Tools -->
<svg height="800px" width="800px" version="1.1" id="Layer_1" xmlns="http://www.w3.org/2000/svg" xmlns:xlink="http://www.w3.org/1999/xlink" 
	 viewBox="0 0 512 512" xml:space="preserve">
<polygon style="fill:#00A653;" points="321.787,9.529 284.39,156.703 265.31,151.855 246.22,151.855 227.631,156.578 190.234,9.404 
	220.62,1.682 240.327,79.245 240.327,0 271.673,0 271.673,79.464 291.412,1.808 "/>
<polygon style="fill:#008040;" points="321.787,9.529 284.39,156.703 265.31,151.855 256.01,151.855 256.01,0 271.673,0 
	271.673,79.464 291.412,1.808 "/>
<path style="fill:#B857D0;" d="M431.491,293.512c0,85.619-64.188,133.465-111.052,168.396
	c-25.078,18.704-48.765,36.352-48.765,50.092h-31.347c0-13.74-23.688-31.389-48.765-50.092
	c-46.864-34.931-111.052-82.777-111.052-168.396c0-81.607,48.525-120.236,89.234-138.271c42.496-18.84,84.49-19.059,86.256-19.059
	h0.01l0.24,0.01c1.766,0.021,43.687,0.92,86.1,20.062C400.666,182.575,431.491,230.034,431.491,293.512z"/>
<path style="fill:#EDCFF3;" d="M120.2,319.205c-13.501-56.46,24.032-91.15,25.637-92.599l21.011,23.263l0.091-0.083
	c-1.039,0.969-25.328,24.168-16.25,62.129L120.2,319.205z"/>
<path style="fill:#9331B2;" d="M431.491,293.512c0,85.619-64.188,133.465-111.052,168.396
	c-25.078,18.704-48.765,36.352-48.765,50.092H256.01V136.182l0.24,0.01c1.766,0.021,43.687,0.92,86.1,20.062
	C400.666,182.575,431.491,230.034,431.491,293.512z"/>
</svg>