<?xml version="1.0" encoding="iso-8859-1"?>
<!-- Uploaded to: SVG Repo, www.svgrepo.com, Generator: SVG Repo Mixer Tools -->
<svg version="1.1" id="Layer_1" xmlns="http://www.w3.org/2000/svg" xmlns:xlink="http://www.w3.org/1999/xlink" 
	 viewBox="0 0 512 512" xml:space="preserve">
<path style="fill:#9A4C00;" d="M512,138.997c0,28.456-15.363,55.825-43.463,77.765v230.357l-90.984,46.465l-8.795,4.486l-3.127,1.6
	h-19.452V247.173l6.672-4.685c16.785-11.786,36.802-31.238,36.802-57.027c0-51.652-82.043-95.293-179.145-95.293
	c-9.726,0-19.347,0.418-28.78,1.255c-1.014,0.084-2.018,0.178-3.022,0.282c-1.349,0.126-2.688,0.272-4.026,0.418
	c-1.109,0.115-2.217,0.251-3.315,0.387c-0.356,0.042-0.701,0.084-1.056,0.136c-0.962,0.105-1.924,0.23-2.876,0.366
	c-3.378,0.46-6.724,0.962-10.04,1.527c-1.14,0.188-2.269,0.387-3.399,0.596c-1.129,0.209-2.248,0.418-3.378,0.638
	c-2.238,0.429-4.466,0.889-6.672,1.38c-1.109,0.241-2.207,0.492-3.305,0.743c-1.098,0.251-2.186,0.512-3.273,0.784
	c-0.722,0.178-1.443,0.356-2.165,0.544c-9.025,2.29-17.737,5.009-26.072,8.136c-0.648,0.241-1.297,0.481-1.935,0.743
	c-1.349,0.512-2.677,1.035-4.005,1.579l-0.021,0.01c-0.199,0.073-0.397,0.157-0.596,0.241l-6.578-14.191l-6.599-14.254l0.607-0.314
	l63.396-32.796C192.834,25.13,245.406,12.33,301.492,12.33c54.716,0,106.399,12.278,145.522,34.563
	C488.919,70.758,512,103.471,512,138.997z"/>
<path style="fill:#FFF6C4;" d="M421.026,185.461c0,8.094-1.244,16.105-3.671,23.917c-6.107,19.671-19.692,38.151-39.803,53.848
	v230.357l-11.922,6.087H43.474V263.226C15.363,241.286,0,213.917,0,185.461c0-32.503,19.776-63.197,55.678-86.445l0.638-0.408
	l33.078-17.12l0.607-0.314l0.638-0.261c21.355-8.774,45.032-15.049,69.995-18.615c13.94-1.997,28.299-3.158,42.888-3.441
	c0.816-0.01,1.631-0.021,2.447-0.031c1.516-0.021,3.022-0.031,4.539-0.031c54.726,0,106.399,12.278,145.533,34.564
	C397.946,117.223,421.026,149.936,421.026,185.461z"/>
<path style="fill:#FFEC97;" d="M421.026,185.461c0,8.094-1.244,16.105-3.671,23.917c-6.107,19.671-19.692,38.151-39.803,53.848
	v230.357l-11.922,6.087H203.522V58.857c0.816-0.01,1.631-0.021,2.447-0.031c1.516-0.021,3.022-0.031,4.539-0.031
	c54.726,0,106.399,12.278,145.533,34.564C397.946,117.223,421.026,149.936,421.026,185.461z"/>
<g>
	<rect x="93.274" y="182.753" style="fill:#FFB74D;" width="27.15" height="27.15"/>
	<rect x="169.377" y="127.388" style="fill:#FFB74D;" width="27.15" height="27.15"/>
	<rect x="189.948" y="232.093" style="fill:#FFB74D;" width="27.15" height="27.15"/>
</g>
<g>
	<rect x="203.522" y="232.093" style="fill:#FF9A00;" width="13.575" height="27.15"/>
	<rect x="272.565" y="158.908" style="fill:#FF9A00;" width="27.15" height="27.15"/>
	<rect x="275.358" y="285.962" style="fill:#FF9A00;" width="27.15" height="27.15"/>
</g>
<rect x="116" y="299.536" style="fill:#FFB74D;" width="27.15" height="27.15"/>
<g>
	<rect x="208.73" y="344.589" style="fill:#FF9A00;" width="27.15" height="27.15"/>
	<rect x="288.932" y="413.946" style="fill:#FF9A00;" width="27.15" height="27.15"/>
</g>
<rect x="129.574" y="409.062" style="fill:#FFB74D;" width="27.15" height="27.15"/>
</svg>