<?xml version="1.0" encoding="iso-8859-1"?>
<!-- Uploaded to: SVG Repo, www.svgrepo.com, Generator: SVG Repo Mixer Tools -->
<svg height="800px" width="800px" version="1.1" id="Layer_1" xmlns="http://www.w3.org/2000/svg" xmlns:xlink="http://www.w3.org/1999/xlink" 
	 viewBox="0 0 512 512" xml:space="preserve">
<polygon style="fill:#008040;" points="400.825,288.87 342.425,389.536 311.153,512 206.063,512 169.721,389.806 111.175,288.87 
	200.868,288.87 208.926,304.485 216.993,320.1 244.965,374.243 270.564,374.243 296.704,320.1 304.24,304.485 311.777,288.87 "/>
<polygon style="fill:#00743A;" points="400.825,288.87 342.425,389.536 311.153,512 256.583,512 256.583,374.243 270.564,374.243 
	296.704,320.1 304.24,304.485 311.777,288.87 "/>
<path style="fill:#00C379;" d="M508.039,195.158c0,38.039-30.949,68.977-68.977,68.977c-4.31,0-8.599-0.406-12.815-1.208
	c-11.004,36.31-44.868,62.575-84.27,62.575c-15.324,0-30.085-3.893-43.223-11.326c-13.127,6.944-27.732,10.587-42.775,10.587h-0.083
	c-15.011-0.01-29.575-3.644-42.671-10.577c-13.138,7.433-27.889,11.316-43.202,11.316c-39.402,0-73.266-26.265-84.27-62.575
	c-4.216,0.802-8.505,1.208-12.815,1.208c-38.028,0-68.977-30.939-68.977-68.977c0-32.771,22.975-60.274,53.664-67.26
	c3.654-43.441,40.183-77.67,84.551-77.67c7.61,0,15.043,0.979,22.236,2.936c7.745-13.585,18.426-25.286,31.449-34.343
	C213.537,6.527,234.295,0.021,255.896,0h0.083c21.632,0,42.421,6.506,60.129,18.832c13.013,9.057,23.704,20.758,31.439,34.343
	c7.204-1.957,14.657-2.946,22.278-2.946c44.368,0,80.897,34.228,84.551,77.67C485.064,134.884,508.039,162.387,508.039,195.158z"/>
<path style="fill:#00A653;" d="M508.039,195.158c0,38.039-30.949,68.977-68.977,68.977c-4.31,0-8.599-0.406-12.815-1.208
	c-11.004,36.31-44.868,62.575-84.27,62.575c-15.324,0-30.085-3.893-43.223-11.326c-13.127,6.944-27.732,10.587-42.775,10.587h-0.083
	V0h0.083c21.632,0,42.421,6.506,60.129,18.832c13.013,9.057,23.704,20.758,31.439,34.343c7.204-1.957,14.657-2.946,22.278-2.946
	c44.368,0,80.897,34.228,84.551,77.67C485.064,134.884,508.039,162.387,508.039,195.158z"/>
</svg>