<?xml version="1.0" encoding="iso-8859-1"?>
<!-- Uploaded to: SVG Repo, www.svgrepo.com, Generator: SVG Repo Mixer Tools -->
<svg height="800px" width="800px" version="1.1" id="Layer_1" xmlns="http://www.w3.org/2000/svg" xmlns:xlink="http://www.w3.org/1999/xlink" 
	 viewBox="0 0 512 512" xml:space="preserve">
<g>
	<path style="fill:#FF3C63;" d="M246.471,394.564c0,64.752-52.684,117.436-117.436,117.436S11.598,459.316,11.598,394.564
		s52.684-117.426,117.436-117.426S246.471,329.812,246.471,394.564z"/>
	<path style="fill:#FF3C63;" d="M500.402,394.564c0,64.752-52.684,117.436-117.436,117.436s-117.436-52.684-117.436-117.436
		s52.684-117.426,117.436-117.426S500.402,329.812,500.402,394.564z"/>
</g>
<g>
	<path style="fill:#C20019;" d="M500.402,394.564c0,64.752-52.684,117.436-117.436,117.436V277.138
		C447.718,277.138,500.402,329.812,500.402,394.564z"/>
	<path style="fill:#C20019;" d="M246.471,394.564c0,64.752-52.684,117.436-117.436,117.436V277.138
		C193.787,277.138,246.471,329.812,246.471,394.564z"/>
</g>
<path style="fill:#00A653;" d="M433.465,369.1c-14.681,10.658-31.242,16.091-48.713,16.091c-6.781,0-13.709-0.826-20.71-2.476
	c-18.035-4.242-30.25-12.507-31.577-13.437l8.955-12.863l8.892-12.915c0.564,0.387,6.489,4.326,15.402,7.22
	c-0.596-16.938-2.894-42.496-10.324-69.862c-16.593-61.21-49.967-102.86-99.192-123.904c-0.01,0-0.021-0.01-0.031-0.01
	c-49.486,21.128-82.954,63.08-99.453,124.75c-7.356,27.47-9.582,52.872-10.146,69.58c4.807-1.599,9.697-4.023,14.545-7.544
	l18.422,25.37c-14.681,10.658-31.242,16.091-48.703,16.091c-6.792,0-13.72-0.826-20.72-2.476
	c-18.035-4.242-30.239-12.507-31.577-13.437l8.955-12.863l8.892-12.915c0.637,0.439,8.004,5.339,18.798,8.223
	c0.533-18.557,2.926-47.041,11.254-78.127c18.463-68.995,57.752-118.606,113.81-143.914V0h31.347v129.452
	c56.33,25.245,95.796,74.951,114.312,144.144c8.401,31.368,10.762,60.103,11.264,78.649c5.862-1.494,11.901-4.169,17.868-8.516
	L433.465,369.1z"/>
<path style="fill:#008040;" d="M433.465,369.1c-14.681,10.658-31.242,16.091-48.713,16.091c-6.781,0-13.709-0.826-20.71-2.476
	c-18.035-4.242-30.25-12.507-31.577-13.437l8.955-12.863l8.892-12.915c0.564,0.387,6.489,4.326,15.402,7.22
	c-0.596-16.938-2.894-42.496-10.324-69.862c-16.593-61.21-49.967-102.86-99.192-123.904V0h15.391v129.452
	c56.33,25.245,95.796,74.951,114.312,144.144c8.401,31.368,10.762,60.103,11.264,78.649c5.862-1.494,11.901-4.169,17.868-8.516
	L433.465,369.1z"/>
<path style="fill:#00A653;" d="M431.203,65.097l-16.018,13.646c-37.491,31.974-70.04,48.065-97.092,48.065
	c-6.708,0-13.082-0.993-19.101-2.978c-31.608-10.418-39.623-43.457-39.946-44.857l-0.585-2.508l0.251-2.56
	c0.136-1.432,3.751-35.234,33.719-49.706c28.735-13.866,69.475-3.96,121.104,29.456L431.203,65.097z"/>
<path style="fill:#008040;" d="M431.203,65.097l-16.018,13.646c-37.491,31.974-70.04,48.065-97.092,48.065
	c-6.708,0-13.082-0.993-19.101-2.978c-31.608-10.418-39.623-43.457-39.946-44.857l-0.585-2.508L431.203,65.097z"/>
</svg>