<?xml version="1.0" encoding="iso-8859-1"?>
<!-- Uploaded to: SVG Repo, www.svgrepo.com, Generator: SVG Repo Mixer Tools -->
<svg version="1.1" id="Layer_1" xmlns="http://www.w3.org/2000/svg" xmlns:xlink="http://www.w3.org/1999/xlink" 
	 viewBox="0 0 512 512" xml:space="preserve">
<path style="fill:#DFCCBE;" d="M496.276,124.396c-16.104,16.104-40.464,19.898-60.393,10.858l-99.404,99.404l-59.139-59.139
	l99.404-99.404c-9.04-19.929-5.246-44.289,10.858-60.393c20.974-20.963,55.084-20.963,76.058,0
	c5.727,5.727,10.001,12.509,12.645,19.971c7.462,2.644,14.244,6.918,19.971,12.645C517.24,69.312,517.24,103.422,496.276,124.396z"
	/>
<path style="fill:#C9AD91;" d="M496.276,124.396c-16.104,16.104-40.464,19.898-60.393,10.858l-99.404,99.404l-29.564-29.564
	l169.39-169.4c7.462,2.644,14.244,6.918,19.971,12.645C517.24,69.312,517.24,103.422,496.276,124.396z"/>
<path style="fill:#9A4C00;" d="M371.687,225.524l-11.088,11.077c-3.532,3.532-10.45,17.076-18.319,43.62
	c-6.124,20.619-9.949,39.304-10.231,42.732c-0.031,0.366-0.042,1.766-0.063,2.884c-0.157,11.38-0.585,41.603-12.478,74.898
	c-15.258,42.7-43.202,74.448-83.07,94.388C213.949,506.367,190.269,512,166.16,512c-20.817,0-41.948-4.201-62.901-12.614
	c-33.608-13.491-54.979-33.128-55.868-33.953l-0.408-0.408l-0.418-0.418c-0.826-0.888-20.462-22.259-33.953-55.868
	C-5.55,363.511-4.066,317.456,16.876,275.56c19.939-39.868,51.688-67.812,94.388-83.07c33.295-11.893,63.517-12.321,74.898-12.478
	c1.118-0.021,2.519-0.031,2.926-0.063c3.386-0.282,22.071-4.107,42.69-10.231c26.544-7.869,40.088-14.787,43.62-18.319
	l11.077-11.088l42.606,42.606L371.687,225.524z"/>
<g>
	
		<rect x="67.311" y="356.974" transform="matrix(0.7071 0.7071 -0.7071 0.7071 285.1965 51.5485)" style="fill:#FFFFFF;" width="26.126" height="26.126"/>
	
		<rect x="123.765" y="326.181" transform="matrix(0.7071 0.7071 -0.7071 0.7071 279.9573 2.6102)" style="fill:#FFFFFF;" width="26.126" height="26.126"/>
	
		<rect x="74.502" y="300.775" transform="matrix(0.7071 0.7071 -0.7071 0.7071 247.5641 30.0031)" style="fill:#FFFFFF;" width="26.126" height="26.126"/>
</g>
<path style="fill:#723700;" d="M371.687,225.524l-11.088,11.077c-3.532,3.532-10.45,17.076-18.319,43.62
	c-6.124,20.619-9.949,39.304-10.231,42.732c-0.031,0.366-0.042,1.766-0.063,2.884c-0.157,11.38-0.585,41.603-12.478,74.898
	c-15.258,42.7-43.202,74.448-83.07,94.388C213.949,506.367,190.269,512,166.16,512c-20.817,0-41.948-4.201-62.901-12.614
	c-33.608-13.491-54.979-33.128-55.868-33.953l-0.408-0.408l282.097-282.108L371.687,225.524z"/>
</svg>