<?xml version="1.0" encoding="iso-8859-1"?>
<!-- Uploaded to: SVG Repo, www.svgrepo.com, Generator: SVG Repo Mixer Tools -->
<svg version="1.1" id="Layer_1" xmlns="http://www.w3.org/2000/svg" xmlns:xlink="http://www.w3.org/1999/xlink" 
	 viewBox="0 0 511.999 511.999" xml:space="preserve">
<path style="fill:#FFB74D;" d="M361.564,304.621l-6.446,4.996c-49.166,38.058-69.274,131.608-77.483,179.334l-2.232,12.985h-38.809
	l-2.232-12.985c-8.208-47.695-28.285-141.193-77.378-179.261l-6.435-4.985l0.396-8.146c1.94-39.706,5.726-80.966,11.254-122.602
	c0.563-4.182,1.126-8.354,1.721-12.526c9.95-70.13,32.113-120.161,67.741-152.942C237.826,2.826,246.941,0,256.057,0
	c9.126,0,18.231,2.826,24.395,8.49c35.628,32.781,57.791,82.812,67.741,152.942c0.595,4.172,1.158,8.344,1.721,12.526
	c5.517,41.615,9.303,82.843,11.254,122.518L361.564,304.621z"/>
<path style="fill:#FF9A00;" d="M361.564,304.621l-6.446,4.996c-49.166,38.058-69.274,131.608-77.483,179.334l-2.232,12.985h-19.347
	V0c9.126,0,18.231,2.826,24.395,8.49c35.628,32.781,57.791,82.812,67.741,152.942c0.595,4.172,1.158,8.344,1.721,12.526
	c5.517,41.615,9.303,82.843,11.254,122.518L361.564,304.621z"/>
<g>
	<rect x="236.066" y="160.368" style="fill:#FFF5CB;" width="39.988" height="31.289"/>
	<rect x="236.066" y="233.908" style="fill:#FFF5CB;" width="39.988" height="31.289"/>
</g>
<g>
	<rect x="298.353" y="160.368" style="fill:#FFC473;" width="39.988" height="31.289"/>
	<rect x="298.353" y="233.908" style="fill:#FFC473;" width="39.988" height="31.289"/>
</g>
<rect x="204.256" y="89.206" style="fill:#FFF5CB;" width="39.988" height="31.289"/>
<rect x="266.542" y="89.206" style="fill:#FFC473;" width="39.988" height="31.289"/>
<g>
	<rect x="175.564" y="160.368" style="fill:#FFF5CB;" width="39.977" height="31.289"/>
	<rect x="175.564" y="233.908" style="fill:#FFF5CB;" width="39.977" height="31.289"/>
	<rect x="236.066" y="307.448" style="fill:#FFF5CB;" width="39.988" height="31.289"/>
</g>
<g>
	<rect x="256.06" y="160.368" style="fill:#FFC473;" width="19.994" height="31.289"/>
	<rect x="256.06" y="233.908" style="fill:#FFC473;" width="19.994" height="31.289"/>
	<rect x="256.06" y="307.448" style="fill:#FFC473;" width="19.994" height="31.289"/>
</g>
<g>
	<path style="fill:#00A653;" d="M257.914,511.923c-0.448,0.146-0.897,0.073-1.252-0.167c-0.386-0.25-0.657-0.678-0.668-1.189v-0.042
		c0.031-1.596,0.052-4.109,0-7.426c0.01-0.469,0.021-0.97,0.031-1.471c0.219-13.079,1.387-36.765,6.195-64.727
		c9.011-52.378,30.83-119.754,83.313-160.378c15.488-11.984,33.636-21.652,54.923-27.91
		C400.457,248.614,410.334,461.005,257.914,511.923z"/>
	<path style="fill:#00A653;" d="M255.995,510.525v0.042c-0.01,0.563-0.334,1.022-0.782,1.262c-0.323,0.177-0.73,0.229-1.126,0.094
		c-152.42-50.918-142.543-263.309-142.543-263.309c21.329,6.279,39.518,15.968,55.027,27.993
		c52.409,40.634,74.208,107.948,83.208,160.295c4.829,28.056,5.976,51.805,6.206,64.852c0,0.469,0.01,0.907,0.01,1.345
		C255.953,506.416,255.974,508.929,255.995,510.525z"/>
</g>
<g>
	<path style="fill:#008040;" d="M257.914,511.923c-0.448,0.146-0.897,0.073-1.252-0.167v-0.01l143.795-263.132
		C400.457,248.614,410.334,461.005,257.914,511.923z"/>
	<path style="fill:#008040;" d="M255.995,510.525v0.042c-0.01,0.563-0.334,1.022-0.782,1.262l-143.67-263.215
		c21.329,6.279,39.518,15.968,55.027,27.993c52.409,40.634,74.208,107.948,83.208,160.295c4.829,28.056,5.976,51.805,6.206,64.852
		c0,0.469,0.01,0.907,0.01,1.345C255.953,506.416,255.974,508.929,255.995,510.525z"/>
</g>
</svg>