<?xml version="1.0" encoding="iso-8859-1"?>
<!-- Uploaded to: SVG Repo, www.svgrepo.com, Generator: SVG Repo Mixer Tools -->
<svg version="1.1" id="Layer_1" xmlns="http://www.w3.org/2000/svg" xmlns:xlink="http://www.w3.org/1999/xlink" 
	 viewBox="0 0 512 512" xml:space="preserve">
<path style="fill:#9A4C00;" d="M511.985,125.081c-67.279,132.618-175.49,57.761-179.717,54.759c0,0-0.01,0.01-0.021,0.01l-0.01,0.01
	c0,0-0.021-0.03-0.041-0.071c-0.041-0.021-0.071-0.041-0.071-0.041l0.01-0.03c-2.993-4.23-77.86-112.44,54.758-179.719
	c25.133,44.802,26.961,79.871,18.413,106.678C432.114,98.121,467.183,99.948,511.985,125.081z"/>
<path style="fill:#723700;" d="M511.985,125.081c-67.279,132.618-175.49,57.761-179.717,54.759c0,0-0.01,0.01-0.021,0.01
	l73.059-73.172C432.114,98.121,467.183,99.948,511.985,125.081z"/>
<path style="fill:#FF4F18;" d="M241.796,165.418c1.138-28.003-12.525-51.316-38.538-65.705
	c-18.541-10.257-37.405-12.706-38.199-12.805l-4.162-0.52l-3.846,1.672c-55.9,24.304-96.305,70.433-116.844,133.399
	c-15.286,46.861-14.233,86.39-14.18,88.05l0.572,17.867l24.88-4.666l3.444-6.591c34.548-66.113,93.527-109.086,175.3-127.725
	l12.464-2.841L241.796,165.418z"/>
<path style="fill:#FF7953;" d="M201.784,476.387c-9.273,4.789-18.658,8.967-28.023,12.582
	c-86.07,33.313-171.395,20.68-171.395,20.68s-12.898-87.091,21.722-174.049c3.533-8.895,7.568-17.78,12.163-26.573
	c0.235-0.439,0.47-0.888,0.704-1.328c30.739-58.048,86.121-111.754,184.762-134.242c36.366-8.293,78.585-12.346,127.634-10.795
	C355.143,346.7,282.247,434.854,201.784,476.387z"/>
<path style="fill:#FF4F18;" d="M2.366,509.649l346.987-346.987C361.955,562.887,2.366,509.649,2.366,509.649z"/>
<g>
	<path style="fill:#FFDBA8;" d="M201.784,476.387c-0.113,0.062-0.235,0.122-0.357,0.184c-0.96,0.49-1.92,0.98-2.88,1.46
		c-0.184,0.092-0.368,0.184-0.552,0.276c-0.847,0.43-1.705,0.848-2.563,1.256c-0.868,0.43-1.746,0.847-2.625,1.256
		c-0.888,0.419-1.778,0.837-2.676,1.246c-1.941,0.899-3.901,1.767-5.852,2.604c-0.868,0.378-1.736,0.745-2.604,1.104
		c-1.838,0.787-3.697,1.542-5.546,2.268c-0.786,0.317-1.583,0.623-2.369,0.929c-12.562-36.121-31.76-67.341-57.363-93.352
		c-12.081-12.286-25.593-23.407-40.503-33.333c-19.73-13.123-38.297-21.558-51.807-26.685c3.533-8.895,7.568-17.78,12.163-26.573
		c0.235-0.439,0.47-0.888,0.704-1.328c14.798,5.729,34.14,14.736,54.769,28.329c14.409,9.498,30.454,21.967,46.222,38.042
		C162.262,398.855,185.903,432.208,201.784,476.387z"/>
	
		<rect x="32.635" y="392.723" transform="matrix(-0.7071 0.7071 -0.7071 -0.7071 372.1971 663.4102)" style="fill:#FFDBA8;" width="32.133" height="32.133"/>
</g>
<path style="fill:#FFC473;" d="M201.784,476.387c-0.113,0.062-0.235,0.122-0.357,0.184c-0.96,0.49-1.92,0.98-2.88,1.46
	c-0.184,0.092-0.368,0.184-0.552,0.276c-0.847,0.43-1.705,0.848-2.563,1.256c-0.868,0.43-1.746,0.847-2.625,1.256
	c-0.888,0.419-1.778,0.837-2.676,1.246c-1.941,0.899-3.901,1.767-5.852,2.604c-0.868,0.378-1.736,0.745-2.604,1.104
	c-1.838,0.787-3.697,1.542-5.546,2.268c-0.786,0.317-1.583,0.623-2.369,0.929c-12.562-36.121-31.76-67.341-57.363-93.352
	l21.549-21.548C162.262,398.855,185.903,432.208,201.784,476.387z"/>
</svg>