<?xml version="1.0" encoding="iso-8859-1"?>
<!-- Uploaded to: SVG Repo, www.svgrepo.com, Generator: SVG Repo Mixer Tools -->
<svg version="1.1" id="Layer_1" xmlns="http://www.w3.org/2000/svg" xmlns:xlink="http://www.w3.org/1999/xlink" 
	 viewBox="0 0 512 512" xml:space="preserve">
<rect x="218.422" style="fill:#A17852;" width="74.798" height="211.374"/>
<rect x="255.821" style="fill:#8A6746;" width="37.399" height="211.374"/>
<path style="fill:#EFE6DE;" d="M304.185,194.467l-10.659-7.004l-9.096,8.942c-0.379,0.374-9.437,9.319-21.237,24.559l-8.266,10.675
	l9.253,9.83c28.047,29.799,73.592,89.44,63.495,154.067c-5.884,37.659-21.354,64.315-44.738,77.083l-30.532,16.673l32.644,12.026
	c17.457,6.431,31.633,6.896,35.362,6.896c0.009,0,0.019,0,0.026,0c0.738,0.037,1.904,0.079,3.436,0.079
	c8.263,0,27.187-1.207,47.227-10.783c24.139-11.534,54.778-37.575,63.656-96.141C451.264,292.479,310.198,198.418,304.185,194.467z"
	/>
<path style="fill:#DFCCBE;" d="M229.063,472.62c-23.383-12.769-38.854-39.424-44.738-77.083
	c-10.097-64.626,35.448-124.267,63.495-154.067l9.253-9.83l-8.266-10.675c-11.8-15.24-20.858-24.186-21.237-24.559l-9.096-8.942
	l-10.659,7.004c-6.013,3.951-147.078,98.012-130.571,206.901c8.878,58.566,39.517,84.608,63.656,96.141
	c20.043,9.576,38.966,10.783,47.227,10.783c1.533,0,2.698-0.042,3.435-0.079c0.009,0,0.019,0,0.027,0
	c3.729-0.001,17.905-0.466,35.362-6.896l32.644-12.026L229.063,472.62z"/>
<path style="fill:#EFE6DE;" d="M358.906,400.413c-9.429,60.302-38.274,87.63-60.818,99.945C278.018,511.315,260.393,512,256.305,512
	h-0.611c-4.088,0-21.713-0.685-41.782-11.641c-22.545-12.315-51.39-39.643-60.818-99.945
	c-12.168-77.917,39.706-146.605,71.712-180.601c11.957-12.705,20.67-20.048,21.038-20.354l9.987-8.396l0.169-0.137l10.156,8.533
	c0.369,0.306,9.081,7.648,21.038,20.354C319.199,253.809,371.073,322.497,358.906,400.413z"/>
<path style="fill:#DFCCBE;" d="M358.906,400.413c-9.429,60.302-38.274,87.63-60.818,99.945C278.018,511.315,260.393,512,256.305,512
	h-0.474V191.062l0.169-0.137l10.156,8.533c0.369,0.306,9.081,7.648,21.038,20.354C319.199,253.809,371.073,322.497,358.906,400.413z
	"/>
</svg>