<?xml version="1.0" encoding="iso-8859-1"?>
<!-- Uploaded to: SVG Repo, www.svgrepo.com, Generator: SVG Repo Mixer Tools -->
<svg version="1.1" id="Layer_1" xmlns="http://www.w3.org/2000/svg" xmlns:xlink="http://www.w3.org/1999/xlink" 
	 viewBox="0 0 512 512" xml:space="preserve">
<rect x="240.347" style="fill:#9A4C00;" width="31.317" height="104.39"/>
<path style="fill:#FFE671;" d="M405.288,301.488c0,40.806-10.439,79.482-30.19,111.854c-17.965,29.438-42.956,51.746-71.006,63.573
	C296.232,497.939,278.287,512,258.171,512c-0.731,0-1.451-0.021-2.171-0.063c-18.707-0.908-35.044-13.654-42.977-32.998
	c-29.313-10.898-55.535-33.008-74.524-63.03c-20.794-32.872-31.787-72.436-31.787-114.422c0-82.071,42.883-153.432,105.298-177.087
	c7.464-20.638,24.458-34.647,43.99-35.618c0.72-0.031,1.441-0.052,2.171-0.052c21.306,0,39.605,15.116,46.861,37.716
	c27.757,11.963,52.466,34.208,70.223,63.438C394.911,222.204,405.288,260.797,405.288,301.488z"/>
<path style="fill:#FFF6C4;" d="M190.121,420.657c-47.031-30.75-48.893-79.716-48.949-81.786l31.305-0.851l-0.003-0.113
	c0.06,1.419,1.837,34.995,34.785,56.537L190.121,420.657z"/>
<rect x="256.005" style="fill:#723700;" width="15.658" height="104.39"/>
<path style="fill:#FFDB2D;" d="M405.288,301.488c0,40.806-10.439,79.482-30.19,111.854c-17.965,29.438-42.956,51.746-71.006,63.573
	C296.232,497.939,278.287,512,258.171,512c-0.731,0-1.451-0.021-2.171-0.063V88.783c0.72-0.031,1.441-0.052,2.171-0.052
	c21.306,0,39.605,15.116,46.861,37.716c27.757,11.963,52.466,34.208,70.223,63.438C394.911,222.204,405.288,260.797,405.288,301.488
	z"/>
<path style="fill:#00A653;" d="M386.591,46.558C275.928,140.905,256,55.159,256,55.159S264.508-32.455,386.591,46.558z"/>
<path style="fill:#008040;" d="M386.591,46.558C275.928,140.905,256,55.159,256,55.159L386.591,46.558z"/>
</svg>