<?xml version="1.0" encoding="iso-8859-1"?>
<!-- Uploaded to: SVG Repo, www.svgrepo.com, Generator: SVG Repo Mixer Tools -->
<svg version="1.1" id="Layer_1" xmlns="http://www.w3.org/2000/svg" xmlns:xlink="http://www.w3.org/1999/xlink" 
	 viewBox="0 0 512 512" xml:space="preserve">
<path style="fill:#9A4C00;" d="M271.508,185.078l-30.162-8.572c23.694-83.369-26.728-157.983-27.24-158.727L239.934,0
	C242.367,3.534,299.192,87.67,271.508,185.078z"/>
<path style="fill:#FFB74D;" d="M457.926,310.074C457.926,421.421,367.347,512,256,512h-0.105
	c-111.295-0.052-201.821-90.61-201.821-201.926c0-111.305,90.526-201.873,201.821-201.926H256
	C367.347,108.149,457.926,198.738,457.926,310.074z"/>
<g>
	<rect x="122.562" y="356.21" style="fill:#FFF6C4;" width="25.085" height="25.085"/>
	<rect x="179.004" y="348.894" style="fill:#FFF6C4;" width="25.085" height="25.085"/>
	<rect x="172.733" y="403.945" style="fill:#FFF6C4;" width="25.085" height="25.085"/>
</g>
<path style="fill:#FF9A00;" d="M457.926,310.074C457.926,421.421,367.347,512,256,512h-0.105V108.149H256
	C367.347,108.149,457.926,198.738,457.926,310.074z"/>
<path style="fill:#00A653;" d="M384.133,43.199c-114.974,98.021-135.669,8.926-135.669,8.926S257.296-38.903,384.133,43.199z"/>
<path style="fill:#008040;" d="M384.133,43.199c-114.974,98.021-135.669,8.926-135.669,8.926L384.133,43.199z"/>
</svg>