<?xml version="1.0" encoding="iso-8859-1"?>
<!-- Uploaded to: SVG Repo, www.svgrepo.com, Generator: SVG Repo Mixer Tools -->
<svg version="1.1" id="Layer_1" xmlns="http://www.w3.org/2000/svg" xmlns:xlink="http://www.w3.org/1999/xlink" 
	 viewBox="0 0 512 512" xml:space="preserve">
<path style="fill:#9A4C00;" d="M241.792,95.603c-0.089-0.818-2.152-20.272,1.231-40.892C249.968,12.379,273.779,2.262,287.355,0
	l5.218,31.317c-20.955,3.493-20.49,48.892-19.22,60.859L241.792,95.603z"/>
<path style="fill:#00A653;" d="M261.418,45.18c0,0-4.858,70.715-104.918,9.885C243.427-23.374,261.418,45.18,261.418,45.18z"/>
<path style="fill:#008040;" d="M261.418,45.18c0,0-4.858,70.715-104.918,9.885L261.418,45.18z"/>
<path style="fill:#FFF6C4;" d="M408.391,380.442c-1.217,46.12-26.436,84.028-66.756,105.912c0,0-53.295,22.16-85.636,0
	c-32.341,22.16-85.636,0-85.636,0c-40.321-21.885-65.539-59.793-66.756-105.912c-0.551-21.007,2.286-43.707,11.757-62.629
	c9.726-19.451,22.478-37.209,32.14-56.702c11.705-23.589,19.927-48.819,26.002-74.407c19.715-83.117,82.493-84.969,82.493-84.969
	s62.777,1.852,82.493,84.969c6.075,25.59,14.297,50.819,26.002,74.407c9.662,19.494,22.414,37.252,32.14,56.702
	C406.106,336.735,408.942,359.435,408.391,380.442z"/>
<path style="fill:#FFEC97;" d="M408.391,380.442c-1.217,46.12-26.436,84.028-66.756,105.912c0,0-53.295,22.16-85.636,0v-384.62
	c0,0,62.777,1.852,82.493,84.969c6.075,25.59,14.297,50.819,26.002,74.407c9.662,19.494,22.414,37.252,32.14,56.702
	C406.106,336.735,408.942,359.435,408.391,380.442z"/>
<path style="fill:#FFE671;" d="M410.836,310.713c-5.091-10.18-10.9-19.811-16.52-29.135c-5.661-9.386-11.006-18.255-15.599-27.515
	c-10.234-20.626-18.34-43.855-24.775-71.021c-11.472-48.332-36.754-72.143-55.941-83.615C276.9,86.812,258.497,85.924,256.464,85.86
	l-0.466-0.01l-0.466,0.01c-2.032,0.064-20.435,0.952-41.538,13.567c-19.186,11.472-44.469,35.283-55.941,83.615
	c-6.445,27.166-14.541,50.395-24.775,71.021c-4.593,9.26-9.937,18.128-15.599,27.526c-5.619,9.313-11.429,18.943-16.52,29.123
	c-9.493,18.965-14.128,43.22-13.419,70.143c1.333,50.744,28.69,94.293,75.053,119.458l0.72,0.392l0.751,0.318
	c2.318,0.963,53.242,21.706,91.732,3.566c11.631,5.482,24.383,7.408,36.595,7.408c28.224,0,53.517-10.308,55.136-10.975l0.751-0.318
	l0.72-0.392c46.363-25.166,73.72-68.714,75.053-119.458c0.043-1.789,0.074-3.566,0.074-5.333
	C424.329,350.726,419.694,328.418,410.836,310.713z M392.517,380.019c-1.016,38.806-22.012,72.269-57.633,91.932
	c-5.694,2.18-46.987,17.017-69.91,1.312l-8.975-6.149l-8.975,6.149c-20.171,13.821-56.554,4.011-69.846-1.27
	c-35.664-19.673-56.682-53.147-57.697-91.975c-0.572-21.727,2.91-40.785,10.075-55.105c4.53-9.059,9.768-17.748,15.313-26.933
	c5.746-9.535,11.683-19.378,16.858-29.812c11.313-22.806,20.214-48.258,27.22-77.794c15.683-66.111,60.935-72.217,67.052-72.735
	c0.021-0.01,0.031-0.01,0.053-0.01c5.407,0.444,51.199,6.148,66.999,72.746c7.006,29.536,15.906,54.977,27.219,77.794
	c5.175,10.434,11.111,20.276,16.858,29.8c5.545,9.196,10.783,17.884,15.313,26.944C389.607,339.233,393.089,358.292,392.517,380.019
	z"/>
<rect x="270.996" y="300.335" style="fill:#8A6746;" width="31.748" height="45.858"/>
<rect x="209.263" y="300.335" style="fill:#A17852;" width="31.748" height="45.858"/>
<path style="fill:#FFDB2D;" d="M424.329,375.522c0,1.767-0.031,3.545-0.074,5.333c-1.333,50.744-28.69,94.293-75.053,119.458
	l-0.72,0.392l-0.751,0.318c-1.62,0.667-26.911,10.975-55.136,10.975c-12.213,0-24.965-1.926-36.595-7.408v-37.473l8.975,6.149
	c22.922,15.705,64.216,0.867,69.91-1.312c35.622-19.663,56.618-53.126,57.633-91.932c0.572-21.727-2.91-40.785-10.075-55.105
	c-4.53-9.059-9.768-17.748-15.313-26.944c-5.746-9.524-11.683-19.366-16.858-29.8c-11.313-22.816-20.214-48.258-27.219-77.794
	c-15.8-66.598-61.592-72.302-66.999-72.746c-0.021,0-0.031,0-0.053,0.01V85.85l0.466,0.01c2.031,0.064,20.435,0.952,41.538,13.567
	c19.186,11.472,44.469,35.283,55.941,83.615c6.434,27.166,14.541,50.395,24.775,71.021c4.593,9.26,9.937,18.128,15.599,27.515
	c5.619,9.324,11.429,18.953,16.52,29.135C419.694,328.418,424.329,350.726,424.329,375.522z"/>
</svg>