<?xml version="1.0" encoding="iso-8859-1"?>
<!-- Uploaded to: SVG Repo, www.svgrepo.com, Generator: SVG Repo Mixer Tools -->
<svg height="800px" width="800px" version="1.1" id="Layer_1" xmlns="http://www.w3.org/2000/svg" xmlns:xlink="http://www.w3.org/1999/xlink" 
	 viewBox="0 0 512 512" xml:space="preserve">
<path style="fill:#86000F;" d="M497.873,322.964c-22.003,35.732-61.371,56.063-120.349,62.134
	c-30.696,3.155-52.866,6.269-80.208,20.227c-9.069,4.618-17.772,9.622-26.976,14.92c-4.733,2.716-9.508,5.464-14.355,8.16
	c-17.229,9.602-35.397,18.66-56.251,24.333c-16.623,4.524-32.921,6.76-48.624,6.76c-36.39,0-69.614-12.005-96.434-35.397
	c-38.887-33.903-59.846-88.65-53.577-139.73V238.43l31.229-1.922c4.618,37.477,24.929,71.631,54.339,91.367
	c28.993,19.464,65.247,24.061,104.834,13.279c22.829-6.217,42.45-17.49,63.22-29.432c0.418-0.24,0.836-0.481,1.264-0.731
	c8.734-5.025,17.772-10.187,27.081-14.93c32.127-16.393,58.09-20.07,91.252-23.487c49.304-5.078,80.094-20.133,96.873-47.392
	c5.882-9.539,9.048-19.026,9.434-28.199l31.323,0.648v75.956C512.563,290.188,507.83,306.79,497.873,322.964z"/>
<path style="fill:#70000A;" d="M497.873,322.964c-22.003,35.732-61.371,56.063-120.349,62.134
	c-30.696,3.155-52.866,6.269-80.208,20.227c-9.069,4.618-17.772,9.622-26.976,14.92c-4.733,2.716-9.508,5.464-14.355,8.16V310.99
	c8.734-5.025,17.772-10.187,27.081-14.93c32.127-16.393,58.09-20.07,91.252-23.487c49.304-5.078,80.094-20.133,96.873-47.392
	c5.882-9.539,9.048-19.026,9.434-28.199l31.323,0.648v75.956C512.563,290.188,507.83,306.79,497.873,322.964z"/>
<path style="fill:#FF3D63;" d="M511.947,192.553l-0.01,5.725c-0.606,14.596-5.328,29.171-14.063,43.338
	c-22.003,35.742-61.371,56.063-120.349,62.134c-10.991,1.128-20.885,2.257-30.309,3.887h-0.01
	c-15.4,2.633-29.557,6.593-45.218,14.042c-1.536,0.731-3.093,1.494-4.67,2.299c-9.069,4.628-17.772,9.622-26.976,14.92
	c-4.733,2.727-9.508,5.464-14.355,8.17c-13.123,7.303-26.788,14.303-41.771,19.736c-4.691,1.703-9.508,3.249-14.481,4.597
	c-9.905,2.696-19.339,4.513-28.314,5.6c-7.136,0.857-13.979,1.254-20.53,1.254c-13.352,0-25.482-1.64-36.39-4.346
	c-11.294-2.779-21.261-6.676-29.933-11.033c-5.684-2.863-10.803-5.914-15.369-8.975c-8.839-5.934-17.02-12.882-24.427-20.666
	c-7.721-8.097-14.596-17.093-20.499-26.778c-12.088-19.788-20.144-42.439-23.058-66.114l-0.115-0.951v-35.387
	c0-19.109,6.112-33.893,11.493-46.932c0.47-1.128,0.94-2.267,1.41-3.406c14.052-34.384,41.802-60.744,82.486-78.338
	c22.076-9.539,47.642-16.226,75.402-19.788c12.255-1.578,24.939-2.549,37.936-2.884c2.236-0.063,4.493-0.104,6.749-0.125
	c13.29-0.125,26.444,0.188,39.409,0.951c4.263,0.251,8.515,0.543,12.736,0.888c11.555,0.93,22.933,2.205,34.112,3.824
	c18.43,2.664,36.296,6.258,53.441,10.73c10.605,2.758,20.927,5.861,30.936,9.299c17.699,6.06,34.405,13.154,49.92,21.23
	c4.628,2.403,9.152,4.9,13.561,7.481c4.702,2.758,9.152,5.621,13.352,8.609c29.839,21.199,46.702,47.904,47.893,76.353
	L511.947,192.553z"/>
<g>
	<path style="fill:#86000F;" d="M209.825,52.656c-38.699,66.699-127.84,218.58-165.056,280.578
		c-7.721-8.097-14.596-17.093-20.499-26.778c36.557-61.193,107.634-182.232,147.618-250.917
		C184.144,53.962,196.828,52.99,209.825,52.656z"/>
	<path style="fill:#86000F;" d="M302.832,58.193c-12.109,20.593-28.575,48.363-46.848,79.091
		c-51.769,87.031-118.134,197.82-141.485,236.624c-11.294-2.779-21.261-6.676-29.933-11.033
		c23.341-38.73,116.703-194.602,171.419-286.972c4.534-7.648,8.797-14.857,12.736-21.533
		C280.275,55.299,291.653,56.574,302.832,58.193z"/>
	<path style="fill:#86000F;" d="M387.209,78.222c-32.472,54.653-88.149,147.524-131.226,219.197
		c-16.414,27.3-30.988,51.529-41.771,69.384c-4.691,1.703-9.508,3.249-14.481,4.597c-9.905,2.696-19.339,4.513-28.314,5.6
		c10.312-16.936,45.521-75.402,84.565-140.472c35.523-59.177,74.222-123.808,100.289-167.605
		C366.878,71.681,377.2,74.784,387.209,78.222z"/>
	<path style="fill:#86000F;" d="M464.043,115.542c-29.871,49.941-83.625,137.661-116.828,192.095h-0.01
		c-15.4,2.633-29.557,6.593-45.218,14.042c26.914-44.445,98.827-161.472,135.143-222.227c4.628,2.403,9.152,4.9,13.561,7.481
		C455.392,109.691,459.843,112.553,464.043,115.542z"/>
</g>
<path style="fill:#C20019;" d="M511.947,192.553l-0.01,5.725c-0.606,14.596-5.328,29.171-14.063,43.338
	c-22.003,35.742-61.371,56.063-120.349,62.134c-10.991,1.128-20.885,2.257-30.309,3.887h-0.01
	c-15.4,2.633-29.557,6.593-45.218,14.042c-1.536,0.731-3.093,1.494-4.67,2.299c-9.069,4.628-17.772,9.622-26.976,14.92
	c-4.733,2.727-9.508,5.464-14.355,8.17V53.481c4.263,0.251,8.515,0.543,12.736,0.888c11.555,0.93,22.933,2.205,34.112,3.824
	c18.43,2.664,36.296,6.258,53.441,10.73c10.605,2.758,20.927,5.861,30.936,9.299c17.699,6.06,34.405,13.154,49.92,21.23
	c4.628,2.403,9.152,4.9,13.561,7.481c4.702,2.758,9.152,5.621,13.352,8.609c29.839,21.199,46.702,47.904,47.893,76.353
	L511.947,192.553z"/>
<g>
	<path style="fill:#70000A;" d="M302.832,58.193c-12.109,20.593-28.575,48.363-46.848,79.091V75.902
		c4.534-7.648,8.797-14.857,12.736-21.533C280.275,55.299,291.653,56.574,302.832,58.193z"/>
	<path style="fill:#70000A;" d="M387.209,78.222c-32.472,54.653-88.149,147.524-131.226,219.197v-60.89
		c35.523-59.177,74.222-123.808,100.289-167.605C366.878,71.681,377.2,74.784,387.209,78.222z"/>
	<path style="fill:#70000A;" d="M464.043,115.542c-29.871,49.941-83.625,137.661-116.828,192.095h-0.01
		c-15.4,2.633-29.557,6.593-45.218,14.042c26.914-44.445,98.827-161.472,135.143-222.227c4.628,2.403,9.152,4.9,13.561,7.481
		C455.392,109.691,459.843,112.553,464.043,115.542z"/>
</g>
</svg>