<?xml version="1.0" encoding="iso-8859-1"?>
<!-- Uploaded to: SVG Repo, www.svgrepo.com, Generator: SVG Repo Mixer Tools -->
<svg version="1.1" id="Layer_1" xmlns="http://www.w3.org/2000/svg" xmlns:xlink="http://www.w3.org/1999/xlink" 
	 viewBox="0 0 512 512" xml:space="preserve">
<path style="fill:#FF3C63;" d="M440.404,262.771c-7.471,36.77-24.074,77.302-48.013,117.227C353.468,444.886,291.819,512,256,512
	s-97.468-67.114-136.38-132.002c-23.939-39.915-40.552-80.457-48.024-117.227c-9.258-45.558-4.984-85.473,12.706-118.617
	l6.29-11.776l12.622,4.336c54.073,18.568,94.407,20.501,116.632,5.59c16.468-11.055,19.926-29.863,20.522-40.093h31.284
	c0.596,10.23,4.054,29.027,20.522,40.082c22.225,14.911,62.548,12.978,116.611-5.58l12.622-4.336l6.29,11.776
	C445.388,177.298,449.661,217.203,440.404,262.771z"/>
<path style="fill:#C20019;" d="M440.404,262.771c-7.471,36.77-24.074,77.302-48.013,117.227C353.468,444.886,291.819,512,256,512
	V102.212h15.653c0.596,10.23,4.054,29.027,20.522,40.082c22.225,14.911,62.548,12.978,116.611-5.58l12.622-4.336l6.29,11.776
	C445.388,177.298,449.661,217.203,440.404,262.771z"/>
<g>
	<rect x="130.967" y="235.457" style="fill:#FFA6B8;" width="26.498" height="26.497"/>
	<rect x="205.49" y="235.457" style="fill:#FFA6B8;" width="26.498" height="26.497"/>
</g>
<rect x="280.012" y="235.457" style="fill:#FF738E;" width="26.497" height="26.497"/>
<g>
	<rect x="170.235" y="290.022" style="fill:#FFA6B8;" width="26.497" height="26.497"/>
	<rect x="244.757" y="290.022" style="fill:#FFA6B8;" width="26.497" height="26.497"/>
</g>
<rect x="319.279" y="290.022" style="fill:#FF738E;" width="26.497" height="26.497"/>
<rect x="207.496" y="345.778" style="fill:#FFA6B8;" width="26.498" height="26.498"/>
<rect x="282.018" y="345.778" style="fill:#FF738E;" width="26.498" height="26.498"/>
<rect x="244.757" y="396.016" style="fill:#FFA6B8;" width="26.497" height="26.498"/>
<g>
	<rect x="256" y="290.022" style="fill:#FF738E;" width="15.256" height="26.497"/>
	<rect x="256" y="396.016" style="fill:#FF738E;" width="15.256" height="26.498"/>
	<rect x="354.534" y="235.457" style="fill:#FF738E;" width="26.498" height="26.497"/>
</g>
<path style="fill:#00A653;" d="M463.088,149.4l-19.54,7.805c-8.359,3.344-16.635,6.416-24.597,9.153
	c-33.28,11.431-62.307,17.147-86.873,17.147c-23.113,0-42.287-5.057-57.375-15.182c-7.889-5.287-13.981-11.473-18.704-17.983
	c-4.712,6.51-10.815,12.706-18.704,17.993c-15.078,10.125-34.262,15.182-57.375,15.182c-24.576,0-53.603-5.716-86.894-17.157
	c-7.973-2.727-16.238-5.81-24.576-9.143l-19.54-7.805l13.072-16.488c53.29-67.166,102.066-98.513,144.98-93.153
	c13.479,1.682,24.597,6.75,33.552,13.009V0h31.347v52.59c9.112-6.322,20.417-11.421,34.116-12.946
	c42.684-4.775,91.157,26.603,144.039,93.268L463.088,149.4z"/>
<path style="fill:#008040;" d="M463.088,149.4l-19.54,7.805c-8.359,3.344-16.635,6.416-24.597,9.153
	c-33.28,11.431-62.307,17.147-86.873,17.147c-23.113,0-42.287-5.057-57.375-15.182c-7.889-5.287-13.981-11.473-18.704-17.983V0
	h15.862v52.59c9.112-6.322,20.417-11.421,34.116-12.946c42.684-4.775,91.157,26.603,144.039,93.268L463.088,149.4z"/>
</svg>