<?xml version="1.0" encoding="iso-8859-1"?>
<!-- Uploaded to: SVG Repo, www.svgrepo.com, Generator: SVG Repo Mixer Tools -->
<svg height="800px" width="800px" version="1.1" id="Layer_1" xmlns="http://www.w3.org/2000/svg" xmlns:xlink="http://www.w3.org/1999/xlink" 
	 viewBox="0 0 512 512" xml:space="preserve">
<path style="fill:#FF3C63;" d="M503.723,288.043c0,60.152-25.991,116.606-73.19,158.957C383.828,488.922,321.849,512,256,512
	c-0.441,0-0.892,0-1.333-0.011c-65.344-0.301-126.807-23.347-173.2-64.989c-47.199-42.351-73.19-98.806-73.19-158.957
	c0-31.688,7.406-62.893,21.584-91.528c3.837-7.782,8.191-15.382,13.028-22.745c21.606-32.903,52.391-60.442,89.024-79.629
	c37.149-19.477,79.575-29.861,122.754-30.065c0.441-0.011,0.892-0.011,1.333-0.011c43.641,0,86.552,10.394,124.098,30.076
	c36.622,19.187,67.407,46.726,89.024,79.64c3.461,5.267,6.675,10.652,9.631,16.145C495.135,220.324,503.723,253.893,503.723,288.043
	z"/>
<path style="fill:#C20019;" d="M503.723,288.043c0,60.152-25.991,116.606-73.19,158.957C383.828,488.922,321.849,512,256,512
	c-0.441,0-0.892,0-1.333-0.011V64.075c0.441-0.011,0.892-0.011,1.333-0.011c43.641,0,86.552,10.394,124.098,30.076
	c36.622,19.187,67.407,46.726,89.024,79.64c3.461,5.267,6.675,10.652,9.631,16.145C495.135,220.324,503.723,253.893,503.723,288.043
	z"/>
<path style="fill:#00A653;" d="M478.753,189.925l-12.684,10.48c-21.95,3.945-91.378,12.695-149.681-21.186
	c0,0,8.642,106.169-60.388,131.827c-0.451-0.161-0.892-0.333-1.333-0.527c-67.579-26.507-59.066-131.3-59.066-131.3
	C137.309,213.1,67.88,204.351,45.931,200.406l-16.07-3.891c3.837-7.782,8.191-15.382,13.028-22.745
	c21.606-32.903,52.391-60.442,89.024-79.629c32.903-17.252,69.933-27.367,107.964-29.603V0h32.247v64.537
	c38.03,2.236,75.061,12.351,107.974,29.603c36.622,19.187,67.407,46.726,89.024,79.64
	C472.583,179.047,475.797,184.433,478.753,189.925z"/>
<path style="fill:#008040;" d="M478.753,189.925l-12.684,10.48c-21.95,3.945-91.378,12.695-149.681-21.186
	c0,0,8.642,106.169-60.388,131.827c-0.451-0.161-0.892-0.333-1.333-0.527V0h17.456v64.537c38.03,2.236,75.061,12.351,107.974,29.603
	c36.622,19.187,67.407,46.726,89.024,79.64C472.583,179.047,475.797,184.433,478.753,189.925z"/>
</svg>