<?xml version="1.0" encoding="iso-8859-1"?>
<!-- Uploaded to: SVG Repo, www.svgrepo.com, Generator: SVG Repo Mixer Tools -->
<svg version="1.1" id="Layer_1" xmlns="http://www.w3.org/2000/svg" xmlns:xlink="http://www.w3.org/1999/xlink" 
	 viewBox="0 0 512 512" xml:space="preserve">
<path style="fill:#00A653;" d="M512,120.007v16.05c0,68.378-26.624,132.671-74.982,181.018
	c-48.347,48.358-112.64,74.982-181.018,74.982s-132.671-26.624-181.018-74.982C26.624,268.727,0,204.434,0,136.056l0.01-0.502
	l0.052-15.611l15.611,0.063H512z"/>
<path style="fill:#008040;" d="M512,120.007v16.05c0,68.378-26.624,132.671-74.982,181.018
	c-48.347,48.358-112.64,74.982-181.018,74.982v-272.05H512z"/>
<path style="fill:#FF3C63;" d="M439.829,135.941c0,101.366-82.463,183.829-183.829,183.829S72.171,237.307,72.171,135.941
	l0.01-0.313v-15.621h367.637L439.829,135.941z"/>
<path style="fill:#C20019;" d="M439.829,135.941c0,101.366-82.463,183.829-183.829,183.829V120.007h183.818L439.829,135.941z"/>
<g>
	<rect x="146.986" y="172.095" style="fill:#9A4C00;" width="25.078" height="25.078"/>
	<rect x="211.069" y="172.095" style="fill:#9A4C00;" width="25.078" height="25.078"/>
</g>
<g>
	<rect x="275.153" y="172.095" style="fill:#723700;" width="25.078" height="25.078"/>
	<rect x="339.247" y="172.095" style="fill:#723700;" width="25.078" height="25.078"/>
</g>
<g>
	<rect x="179.378" y="222.772" style="fill:#9A4C00;" width="25.078" height="25.078"/>
	<rect x="243.461" y="222.772" style="fill:#9A4C00;" width="25.078" height="25.078"/>
</g>
<g>
	<rect x="256" y="222.772" style="fill:#723700;" width="12.539" height="25.078"/>
	<rect x="307.545" y="222.772" style="fill:#723700;" width="25.078" height="25.078"/>
</g>
</svg>